<?xml version="1.0" standalone="no"?>
<!DOCTYPE svg PUBLIC "-//W3C//DTD SVG 20010904//EN"
 "http://www.w3.org/TR/2001/REC-SVG-20010904/DTD/svg10.dtd">
<svg version="1.0" xmlns="http://www.w3.org/2000/svg"
 width="192.000000pt" height="192.000000pt" viewBox="0 0 192.000000 192.000000"
 preserveAspectRatio="xMidYMid meet">
<metadata>
Created by potrace 1.11, written by Peter Selinger 2001-2013
</metadata>
<g transform="translate(0.000000,192.000000) scale(0.100000,-0.100000)"
fill="#000000" stroke="none">
<path d="M732 1619 c-114 -19 -232 -116 -232 -191 0 -22 -4 -24 -30 -20 -66 9
-130 -45 -130 -110 0 -18 14 -62 31 -98 26 -53 33 -81 39 -164 4 -56 8 -81 9
-56 0 25 5 72 11 105 8 54 14 65 59 107 28 25 70 53 93 60 39 13 47 13 88 -5
68 -30 177 -27 329 12 138 34 195 38 246 17 39 -17 55 -42 55 -87 0 -32 0 -32
21 -13 16 15 20 27 16 56 l-5 37 27 -13 c46 -24 64 -52 59 -91 -6 -50 6 -44
32 17 42 98 12 189 -75 224 -25 11 -45 23 -45 28 0 9 113 2 175 -10 l30 -6
-25 21 c-44 36 -212 118 -300 146 -125 39 -351 55 -478 34z"/>
<path d="M494 1132 c-25 -16 -34 -55 -34 -140 0 -139 -4 -136 217 -140 170 -3
180 -2 206 18 26 21 27 24 27 124 0 153 10 146 -218 146 -103 0 -192 -4 -198
-8z m384 -127 c2 -85 0 -102 -15 -112 -12 -9 -64 -13 -179 -13 -200 0 -194 -4
-194 120 0 75 3 91 19 102 14 10 59 12 192 8 l174 -5 3 -100z"/>
<path d="M967 1122 c-14 -15 -17 -40 -17 -125 0 -102 1 -106 26 -126 25 -19
40 -21 191 -21 159 0 197 6 215 34 4 6 8 59 8 117 0 146 11 139 -222 139 -166
0 -187 -2 -201 -18z m391 -29 c18 -25 16 -163 -4 -191 -15 -21 -21 -22 -184
-22 -203 0 -200 -2 -200 122 0 115 -3 114 205 110 145 -2 172 -5 183 -19z"/>
<path d="M1183 767 c-14 -30 -112 -82 -183 -96 -82 -18 -229 -24 -277 -13 -48
11 -58 0 -15 -17 76 -31 335 -43 407 -19 35 11 42 20 61 68 31 79 37 100 26
100 -5 0 -14 -10 -19 -23z"/>
<path d="M682 513 c-7 -3 -17 -13 -22 -24 -16 -28 2 -54 50 -73 29 -11 40 -22
38 -33 -5 -28 -27 -26 -59 6 -17 17 -32 31 -35 31 -2 0 -4 -15 -4 -34 l0 -33
54 -2 c106 -2 119 64 22 110 -39 18 -45 39 -12 39 15 0 31 -8 38 -20 18 -28
28 -25 28 8 0 26 -3 28 -42 29 -24 1 -49 -1 -56 -4z"/>
<path d="M839 491 c-37 -38 -39 -82 -4 -117 21 -21 32 -24 85 -22 58 2 60 3
60 30 0 15 5 30 10 33 22 13 8 25 -30 25 -22 0 -40 -4 -40 -10 0 -5 5 -10 10
-10 15 0 12 -36 -4 -49 -38 -32 -79 43 -57 102 14 36 54 37 77 2 20 -31 32
-25 27 12 -4 27 -8 29 -55 31 -43 2 -53 -2 -79 -27z"/>
<path d="M1260 510 c0 -5 5 -10 10 -10 14 0 13 -123 -2 -138 -9 -9 -4 -12 24
-12 33 0 35 2 30 28 -5 24 -4 26 12 13 9 -8 15 -20 12 -28 -4 -9 4 -13 29 -13
l34 0 -24 36 c-30 44 -31 50 -5 66 30 19 24 28 -16 28 -30 0 -34 -3 -29 -19 3
-11 1 -22 -5 -26 -6 -4 -10 10 -10 39 0 44 -1 46 -30 46 -16 0 -30 -4 -30 -10z"/>
<path d="M488 503 c8 -3 12 -28 12 -73 0 -45 -4 -70 -12 -73 -7 -3 9 -6 37 -6
38 -1 46 2 37 11 -15 15 -16 58 -1 58 7 0 18 -8 25 -17 12 -16 13 -13 14 25 0
41 -12 56 -24 27 -9 -26 -28 -16 -24 12 4 35 30 41 57 14 27 -27 31 -26 31 4
0 25 -1 25 -82 24 -46 0 -77 -3 -70 -6z"/>
<path d="M1027 462 c-22 -25 -21 -75 1 -95 24 -22 66 -22 87 -1 22 23 10 31
-14 10 -23 -21 -41 -14 -41 15 0 14 7 19 30 19 25 0 30 4 30 23 0 13 -5 28
-12 35 -18 18 -63 14 -81 -6z m53 -17 c0 -8 -4 -15 -10 -15 -5 0 -10 7 -10 15
0 8 5 15 10 15 6 0 10 -7 10 -15z"/>
<path d="M1157 462 c-38 -42 -10 -112 45 -112 26 0 56 25 44 37 -3 4 -12 -2
-20 -12 -15 -21 -31 -15 -39 15 -4 17 0 20 29 20 36 0 43 14 24 51 -14 25 -61
25 -83 1z m53 -18 c0 -8 -6 -14 -14 -14 -9 0 -12 7 -9 20 6 22 23 18 23 -6z"/>
</g>
</svg>
